<svg version="1.1" id="Layer_1" xmlns="http://www.w3.org/2000/svg" xmlns:xlink="http://www.w3.org/1999/xlink" x="0px" y="0px"
	 width="100%" viewBox="0 0 608 608" enable-background="new 0 0 608 608" xml:space="preserve">
<path fill="#1E2024" opacity="1.000000" stroke="none" 
	d="
M608.000000,609.000000 
	C405.737122,609.000000 203.474213,609.000000 1.000000,609.000000 
	C1.000000,406.974213 1.000000,204.948364 1.468655,2.462800 
	C203.820923,2.003091 405.704529,2.003091 608.000000,2.003091 
	C608.000000,204.815445 608.000000,406.907715 608.000000,609.000000 
M132.862274,436.094086 
	C134.605789,436.568420 136.348709,437.454834 138.092896,437.457275 
	C190.412598,437.530884 242.732407,437.517090 295.052216,437.517090 
	C296.652710,437.517090 298.253235,437.517120 299.822235,437.517120 
	C299.822235,424.631134 299.822235,412.410492 299.822235,399.796753 
	C257.551544,399.796753 215.633926,399.796753 173.780975,399.796753 
	C173.780975,375.793121 173.780975,352.190674 173.780975,328.089111 
	C211.930435,328.089111 249.819489,328.089111 287.733337,328.089111 
	C287.733337,316.013824 287.733337,304.442169 287.733337,292.283936 
	C249.584579,292.283936 211.704300,292.283936 173.739380,292.283936 
	C173.739380,269.935852 173.739380,248.178680 173.739380,225.841827 
	C215.326859,225.841827 256.696014,225.841827 297.932800,225.841827 
	C297.932800,213.144348 297.932800,201.028519 297.932800,188.874634 
	C242.827042,188.874634 187.965973,188.874634 132.827972,188.874634 
	C132.827972,271.230438 132.827972,353.194794 132.862274,436.094086 
M422.714386,342.196503 
	C439.878967,340.001038 455.011200,333.226593 467.429810,321.187012 
	C487.208069,302.012390 492.836517,278.124023 488.706970,251.677551 
	C484.888153,227.221146 471.008698,209.531235 449.406036,198.078979 
	C435.462585,190.687119 420.138550,188.474930 404.467377,188.483231 
	C376.474518,188.498032 348.481659,188.487381 320.488800,188.487381 
	C318.729797,188.487381 316.970764,188.487381 315.169556,188.487381 
	C315.169556,271.785858 315.169556,354.395905 315.169556,437.259216 
	C328.764618,437.259216 342.186859,437.259216 356.062866,437.259216 
	C356.062866,405.953430 356.062866,374.868988 356.062866,343.512634 
	C372.159882,343.512634 387.806091,343.616058 403.449677,343.461029 
	C409.584015,343.400238 415.712585,342.760437 422.714386,342.196503 
z"/>
<path fill="#878788" opacity="1.000000" stroke="none" 
	d="
M608.500000,609.000000 
	C608.000000,406.907715 608.000000,204.815445 608.000000,2.003091 
	C405.704529,2.003091 203.820923,2.003091 1.468655,2.001545 
	C1.166667,1.666667 1.315919,1.056198 1.502793,1.044456 
	C2.830883,0.961004 4.166667,1.000000 5.500000,1.000000 
	C206.666672,1.000000 407.833344,1.000000 609.000000,1.000000 
	C609.000000,203.666672 609.000000,406.333344 608.500000,609.000000 
z"/>
<path fill="#F0F0F3" opacity="1.000000" stroke="none" 
	d="
M132.845123,435.626587 
	C132.827972,353.194794 132.827972,271.230438 132.827972,188.874634 
	C187.965973,188.874634 242.827042,188.874634 297.932800,188.874634 
	C297.932800,201.028519 297.932800,213.144348 297.932800,225.841827 
	C256.696014,225.841827 215.326859,225.841827 173.739380,225.841827 
	C173.739380,248.178680 173.739380,269.935852 173.739380,292.283936 
	C211.704300,292.283936 249.584579,292.283936 287.733337,292.283936 
	C287.733337,304.442169 287.733337,316.013824 287.733337,328.089111 
	C249.819489,328.089111 211.930435,328.089111 173.780975,328.089111 
	C173.780975,352.190674 173.780975,375.793121 173.780975,399.796753 
	C215.633926,399.796753 257.551544,399.796753 299.822235,399.796753 
	C299.822235,412.410492 299.822235,424.631134 299.822235,437.517120 
	C298.253235,437.517120 296.652710,437.517090 295.052216,437.517090 
	C242.732407,437.517090 190.412598,437.530884 138.092896,437.457275 
	C136.348709,437.454834 134.605789,436.568420 132.845123,435.626587 
z"/>
<path fill="#F1F1F4" opacity="1.000000" stroke="none" 
	d="
M422.279083,342.290405 
	C415.712585,342.760437 409.584015,343.400238 403.449677,343.461029 
	C387.806091,343.616058 372.159882,343.512634 356.062866,343.512634 
	C356.062866,374.868988 356.062866,405.953430 356.062866,437.259216 
	C342.186859,437.259216 328.764618,437.259216 315.169556,437.259216 
	C315.169556,354.395905 315.169556,271.785858 315.169556,188.487381 
	C316.970764,188.487381 318.729797,188.487381 320.488800,188.487381 
	C348.481659,188.487381 376.474518,188.498032 404.467377,188.483231 
	C420.138550,188.474930 435.462585,190.687119 449.406036,198.078979 
	C471.008698,209.531235 484.888153,227.221146 488.706970,251.677551 
	C492.836517,278.124023 487.208069,302.012390 467.429810,321.187012 
	C455.011200,333.226593 439.878967,340.001038 422.279083,342.290405 
M356.003235,244.500214 
	C356.003235,265.587189 356.003235,286.674194 356.003235,307.826721 
	C374.401794,307.826721 392.223450,308.370819 409.996918,307.677795 
	C428.775513,306.945526 443.691010,294.805573 447.684357,277.705475 
	C453.875763,251.193176 439.441315,227.019745 411.480865,224.695190 
	C396.752808,223.470764 381.864807,224.163879 367.048828,224.008881 
	C363.444824,223.971176 359.840118,224.003265 356.003235,224.003265 
	C356.003235,230.887405 356.003235,237.193924 356.003235,244.500214 
z"/>
<path fill="#1E2024" opacity="1.000000" stroke="none" 
	d="
M356.003235,244.000336 
	C356.003235,237.193924 356.003235,230.887405 356.003235,224.003265 
	C359.840118,224.003265 363.444824,223.971176 367.048828,224.008881 
	C381.864807,224.163879 396.752808,223.470764 411.480865,224.695190 
	C439.441315,227.019745 453.875763,251.193176 447.684357,277.705475 
	C443.691010,294.805573 428.775513,306.945526 409.996918,307.677795 
	C392.223450,308.370819 374.401794,307.826721 356.003235,307.826721 
	C356.003235,286.674194 356.003235,265.587189 356.003235,244.000336 
z"/>
</svg>