<svg xmlns="http://www.w3.org/2000/svg" width="177.856" height="58.555" viewBox="0 0 177.856 58.555"><defs><style>.a{fill:#2d2d2d;}.b,.c{fill:#004ee8;}.b,.d{opacity:0.5;}.d,.e{fill:#f6a72d;}.f{fill:#ce004f;}</style></defs><g transform="translate(-63.118 -49.65)"><path class="a" d="M167.814,53.407h4.68a5.172,5.172,0,0,1,5.171,5.171V92.735H201.19v8.858H167.814Z" transform="translate(39.784 1.428)"/><path class="a" d="M114.639,101.594h-21.9V58.581A5.115,5.115,0,0,1,97.7,53.407h17.715c9.071,0,15.094,3.614,15.094,12.188,0,5.1-2.055,8.15-5.811,9.993,4.749,1.842,7.511,4.96,7.511,11.338C132.214,96.917,125.057,101.594,114.639,101.594Zm-1.275-39.825H102.451V72.116h11.055c3.9,0,7.086-1.2,7.086-5.244S117.828,61.768,113.364,61.768Zm.425,18.5H102.451V92.878h11.48c4.889,0,7.866-1.417,7.866-6.236C121.8,81.682,118.891,80.264,113.789,80.264Z" transform="translate(11.257 1.428)"/><path class="a" d="M176.161,53.407c-2.48,0-4.11,1.275-4.961,3.756l-7.3,30.187-6.945-33.944H146.47l-7.048,33.759L134,64.935l-1.9-7.772a4.945,4.945,0,0,0-5-3.756h-6.145l13.747,48.187h9.55l7.481-36.807,7.417,36.807h9.425l13.676-48.187Z" transform="translate(21.979 1.428)"/><g transform="translate(63.118 49.65)"><g transform="translate(1.837 19.355)"><path class="b" d="M65.964,89.219a5.172,5.172,0,0,0,0,7.315l4.183,4.183L93.668,77.2l-7.841-7.84Z" transform="translate(-64.449 -61.517)"/><path class="c" d="M79.94,71.516l7.841,7.84,4.181-4.181a5.174,5.174,0,0,0,0-7.317l-4.181-4.181Z" transform="translate(-58.563 -63.676)"/></g><g transform="translate(0 9.678)"><path class="d" d="M64.633,74.366a5.172,5.172,0,0,0,0,7.315l4.181,4.183L84.5,70.185l-7.84-7.841Z" transform="translate(-63.118 -54.504)"/><path class="e" d="M72.928,64.5l7.84,7.841,4.181-4.183a5.172,5.172,0,0,0,0-7.315l-4.181-4.183Z" transform="translate(-59.39 -56.663)"/></g><path class="f" d="M3.749,0h7.339a0,0,0,0,1,0,0V7.339a3.749,3.749,0,0,1-3.749,3.749H0a0,0,0,0,1,0,0V3.749A3.749,3.749,0,0,1,3.749,0Z" transform="translate(3.86 7.84) rotate(-45)"/></g></g></svg>